<svg id="Akhbar_El_Yom" data-name="Akhbar El Yom" 
xmlns="http://www.w3.org/2000/svg" xmlns:xlink="http://www.w3.org/1999/xlink"
x="0px" y="0px" viewBox="-80 -50 1000 400" xml:space="preserve">

	<style>
		#grayscale-mask path:not(.strok), #color-mask path:not(.strok) {
    animation: waves 0.66s infinite linear;
}

@keyframes waves {
    from {
      transform: translateX(30rem); // Expect these values to take some hunting for
    }
    to {
      transform: translateX(-4rem); // Expect these values to take some hunting for
    }
}

#grayscale-mask g, #color-mask g {
    animation: raise 4s infinite ease-in-out;
    animation-direction: alternate;
}

@keyframes raise {
    from {
      transform: translateY(7rem); // Expect these values to take some hunting for
    }
    to {
      transform: translateY(-15rem); // Expect these values to take some hunting for
    }
}

#grayscale{
    fill: transparent; /*#9f9f9f;*/
}

#color-logo {
    fill: #f26522;
}

#color-strok, #grayscale-strok, #color-logo #grayscale-logo  {
  fill:white;
   -webkit-filter: drop-shadow( 3px 3px 2px rgba(0, 0, 0, .7));
  filter: drop-shadow( 3px 3px 2px rgba(0, 0, 0, .7));
  /* Similar syntax to box-shadow */
}
#grayscale-mask, #color-mask {
  fill: white;
}
	</style>
  <defs>
    <g id="letters-strok">
      <path id="Meim-strok" class="strok" d="M705,433.81v-.2l0-.2c-3.2-16-15.61-26.77-30.88-26.77-16.66,0-37.81,13.92-42.92,53.08a23.51,23.51,0,0,1-13.53,7.3c-18.92,1.11-34,6-46.18,14.81a80,80,0,0,0-18.95,20.54l-.07.12c-22.28,38.19-14.2,89.22-12.36,99.06,6.24,33.28,31.81,79.91,46.66,97.39l1.53,1.8,2.1-1.06c1.27-.63,5.12-2.56,4.66-33.85-.14-9.56-1-33.91-6.1-53.58-1.94-7.54-4-14.84-6-21.91-4.72-16.54-9.18-32.16-7.93-38.68,1.89-7.5,5.42-9.12,8.61-9.71,36.91-6.81,66.06-18.23,86.65-33.94C695.2,488.94,706.91,464,705,433.81ZM583,539c-5,.93-9,4-11,12-2,10,7.09,35.22,14,62,8,31,7,82,3,84-14.84-17.46-40-64-46-96-2.33-12.43-9-61,12-97a76.48,76.48,0,0,1,18.19-19.75C583.7,476.6,597.87,471.15,618,470c5-1,11-3,16-9,7.93-64.42,61-62,68-27C706,497,648,527,583,539Z" transform="translate(-537.11 -334.68)"/> 
    	<path id="Lio-strok" class="strok" d="M893,343.82l-.51-8.61L843,406.07l1,80.16c-8.65,4.12-34.26,9.11-50.79,10.53.17-6.59-.64-19.71-9.54-21.69l-1.53-.34-24.77,22.93c-2.73-6-8.67-13-19.14-13a34.85,34.85,0,0,0-14.39,3.6c-14.42,6.18-26.42,23.76-27.28,25s-14.09,20.16-4.13,37.22a26.16,26.16,0,0,0,13.15,11.08c-22.87,7.55-75.58,25.17-86,30.77-7.48,4-11.36,9.21-11.23,15,.18,7.78,7.7,15.3,22.35,22.35l.24.12.26.07a129.91,129.91,0,0,0,33.94,4.22c29.13,0,81.07-8.9,103.93-68.1,44.59,0,79-14.06,102.33-41.75,16.7-19.84,24.22-43.63,25.59-58C899,445.29,893.24,348,893,343.82ZM894,466c-2,21-23,98-127,97-28,76-106,72-135,64-27-13-24-25-11-32s96-34,96-34-15,0-22-12c-9.25-15.86,4-34,4-34s12-18,26-24c26-12,31,12,31,12l27-25c9,2,7,22,7,22,17-1,49-7,57-12l-1-81,44-63S896,445,894,466Z" transform="translate(-537.11 -334.68)"/>
			<path id="Yaa-strok" class="strok" d="M773,603.3l-33.55,62.64,93.62-15.24,26.83-62.61ZM831,648l-86,14,30-56,80-14Z" transform="translate(-537.11 -334.68)"/>
      <path id="Fatiha-strok" class="strok" d="M738,397.15V427l70.07-37.73,27.85-41.1ZM806,387l-65,35V399l86-43Z" transform="translate(-537.11 -334.68)"/>
      <path id="Alef2-Strok" class="strok" d="M974.54,334.68l-55.6,73.39,9.52,169.25,55.6-73.39ZM922,409l50-66,9,160-50,66Z" transform="translate(-537.11 -334.68)"/>
      <path id="Ahr-strok" class="strok" d="M1030.71,534.43l0-.18c-.67-6.09-5-10-10.93-10a14.76,14.76,0,0,0-10.21,4.27C982,557,934.71,583.71,915.81,590.72a11,11,0,0,0-8.1,9.57,13.83,13.83,0,0,0,6.51,13.9l.13.07A80.75,80.75,0,0,0,951,622.82c22.6,0,43.95-8.86,58.6-24.3C1024.78,582.47,1032.09,560.3,1030.71,534.43Zm-115,77.16c-7-4-7-16,1-18,19-7,67-34,95-63,5-5,15-5,16,4C1031.71,609.59,960.71,634.59,915.71,611.59Z" transform="translate(-537.11 -334.68)"/>
      <path id="Ba2-strok" class="strok" d="M1094.41,619.2l-45.12,49.52L1095.94,696l36.32-55ZM1095,692l-41-24,41-45,33,19Z" transform="translate(-537.11 -334.68)"/>
      <path id="Kha-point-strok" class="strok" d="M1234.38,381.82l-42.59,56.79,43.87,32.62,41.5-57.89ZM1235,467l-39-29,39-52,38,28Z" transform="translate(-537.11 -334.68)"/>
      <path id="Khba-out-strok" class="strok" d="M1296.13,522.31c-1.28-4.65-4-13.78-7.45-20.65-6.15-12.31-19.33-24.72-34.92-24.72-.65,0-1.32,0-2,.07-12.17,1.11-24.41,8.48-33.58,20.23-9.83,12.6-15.69,29.24-17,48.23-16.23,3-42.75,8.34-53.73,10.57,2.18-8.19,2.88-18.27-.67-26.26l-2.13-4.8-3,4.28c-8.22,11.5-29.41,21.33-39.59,24l-4.15-186.34L1047,428l6.15,192.63,49.22-9.22,5.08,10.16L1181,601.91v28a10.28,10.28,0,0,0,2.47,7.89,10.81,10.81,0,0,0,8.06,3.38c4.84,0,11.14-2.9,14.28-11.08l11.44-30.52,69-17,23.57-64ZM1284,580l-69,17-12,32c-5,13-20,11-19,1V598l-75,20-5-10-48,9-6-188,45-54,4,181.91c8-.91,35-11.91,45-25.91,4,9,2,21-1,29,0,0,40.67-8.33,61-12,2-41.77,26-66,48-68,14-1,27.55,10.1,34,23,4.6,9.21,8,23,8,23l11-3Z" transform="translate(-537.11 -334.68)"/>
      <path id="Hamzah-Strok" class="strok" d="M1349,376.79l-.49-1-1-.44a25.63,25.63,0,0,0-10-2.15,20.78,20.78,0,0,0-6.36,1c-5.4,1.74-8.39,5.19-13.34,10.89-4.44,5.1-6.88,7.91-7.69,12.44-.39,2.14-.16,3.27.8,8,.31,1.53.71,3.49,1.2,6.06,1.52,7.86,1.63,9.4,1.29,10a5.36,5.36,0,0,1-2.4,2.12,9.61,9.61,0,0,0-4.78,5.29,10.18,10.18,0,0,0,2,10.17,9.74,9.74,0,0,0,7.08,2.65,14.09,14.09,0,0,0,5.19-1c8.37-3.43,15.06-8.65,19.36-15.12,2-3,5.06-7.62,3.34-12.63a11.59,11.59,0,0,0-5.88-6.35c-.94-2.15-2.4-6.4-.7-9.19,1-1.63,3.2-2.93,5-4a23.19,23.19,0,0,1,3.88-1.82,8,8,0,0,0,4.38-3C1351.72,385.86,1351.46,382,1349,376.79Zm-1.39,10c-1.23,1.84-3.14,1.48-7.3,3.93-2,1.22-4.61,2.73-6,5-2.9,4.75.18,11.34,1,13,1.31.56,4.27,2.06,5.3,5.07,1.15,3.35-.72,6.58-3,10-5,7.52-12.39,11.71-18,14-2.41,1-6.63,1.38-9-1a7.17,7.17,0,0,1-1.3-7.07c1.33-3.85,5.1-3.35,7-7,.81-1.54.77-2.85-1-12-2-10.29-2.38-10.9-2-13,.67-3.71,2.78-6.14,7-11,4.81-5.53,7.4-8.52,12-10,5.89-1.89,11.41-.15,14.3,1.07C1349,382.77,1348.57,385.33,1347.62,386.75Z" transform="translate(-537.11 -334.68)"/>
      <path id="Alef-Strok" class="strok" d="M1377.11,388.63l-53.73,67.16,4.22,170.87,55.85-64.78ZM1327,456.13l48-60,6,164-50,58Z" transform="translate(-537.11 -334.68)"/>
    </g>


    <g id="letters">	
  		<path id="Meim" class="cls-1" d="M572,551c-2,10,7.09,35.22,14,62,8,31,7,82,3,84-14.84-17.46-40-64-46-96-2.33-12.43-9-61,12-97a76.48,76.48,0,0,1,18.19-19.75C583.7,476.6,597.87,471.15,618,470c5-1,11-3,16-9,7.93-64.42,61-62,68-27,4,63-54,93-119,105C578,539.93,574,543,572,551Z" transform="translate(-537.11 -334.68)"/>
			<g id="gLio">
				<path id="lio" class="cls-1" d="M894,466c-2,21-23,98-127,97-28,76-106,72-135,64-27-13-24-25-11-32s96-34,96-34-15,0-22-12c-9.25-15.86,4-34,4-34s12-18,26-24c26-12,31,12,31,12l27-25c9,2,7,22,7,22,17-1,49-7,57-12l-1-81,44-63S896,445,894,466Z" transform="translate(-537.11 -334.68)"/>
  			<polygon id="Yaa" class="cls-1" points="317.89 257.32 293.89 313.32 207.89 327.32 237.89 271.32 317.89 257.32"/>
  			<polygon id="Fatiha" class="cls-1" points="289.89 21.32 268.89 52.32 203.89 87.32 203.89 64.32 289.89 21.32"/>
			</g>
  		<polygon id="Alef2" class="cls-1" points="443.89 168.32 393.89 234.32 384.89 74.32 434.89 8.32 443.89 168.32"/>
  		<path id="Ahr" class="cls-1" d="M915.71,611.59c-7-4-7-16,1-18,19-7,67-34,95-63,5-5,15-5,16,4C1031.71,609.59,960.71,634.59,915.71,611.59Z" transform="translate(-537.11 -334.68)"/>
			<g id="gKhba">
				<polygon id="Ba2" class="cls-1" points="590.89 307.32 557.89 357.32 516.89 333.32 557.89 288.32 590.89 307.32"/>
  			<polygon id="Kha-point" class="cls-1" points="735.89 79.32 697.89 132.32 658.89 103.32 697.89 51.32 735.89 79.32"/>
  			<path id="Khba-in-strok" class="strok" d="M1218,549l34-6C1254,515,1221,526,1218,549Zm3.91-3.74c3.06-9.33,11.78-15.9,18.9-15.9a7.31,7.31,0,0,1,5.6,2.21c1.74,1.87,2.65,4.92,2.68,8.9Z" transform="translate(-537.11 -334.68)"/>
  			<path id="Khba" class="cls-1" d="M1294,526s-3.4-13.79-8-23c-6.45-12.9-20-24-34-23-22,2-46,26.23-48,68-20.33,3.67-61,12-61,12,3-8,5-20,1-29-10,14-37,25-45,25.91L1095,375l-45,54,6,188,48-9,5,10,75-20v32c-1,10,14,12,19-1l12-32,69-17,21-57Zm-41.68,17.11-34,6C1221.32,526.11,1254.32,515.11,1252.32,543.11Zm-8.3-13.18a6.59,6.59,0,0,1,2.39,1.64c1.74,1.87,2.65,4.92,2.68,8.9l-26.8,4.72-.06.18,27.18-4.79c0-4-.94-7-2.68-8.9A6.52,6.52,0,0,0,1244,529.93Z" transform="translate(-537.11 -334.68)"/>
			</g>\
			<g id="gAlef">
				<path id="Hamzah" class="cls-1" d="M1347.3,387.07c-1.23,1.84-3.15,1.48-7.3,3.93-2,1.21-4.61,2.73-6,5-2.9,4.74.17,11.34,1,13,1.31.56,4.27,2.06,5.3,5.07,1.15,3.35-.73,6.58-3,10-5,7.52-12.39,11.71-18,14-2.41,1-6.63,1.37-9-1A7.15,7.15,0,0,1,1309,430c1.33-3.85,5.1-3.35,7-7,.8-1.54.77-2.85-1-12-2-10.29-2.38-10.9-2-13,.67-3.71,2.78-6.14,7-11,4.8-5.53,7.4-8.52,12-10,5.88-1.89,11.41-.15,14.3,1.07C1348.68,383.09,1348.25,385.65,1347.3,387.07Z" transform="translate(-537.11 -334.68)"/>
				<polygon id="Alef" class="cls-1" points="837.29 62.13 843.29 226.13 793.29 284.13 789.29 122.13 837.29 62.13"/>
			</g>
		</g>
		<mask id="grayscale-mask">
			<g>
				<path d="m -509.9,160.405 0,67.59962 c 70.8,0 106.9,14.70038 141.7,29.00038 34.9,14.3 71,29 142.10001,29 71,0 107.2,-14.8 142.100004,-29 34.8,-14.2 70.9,-29 141.700016,-29 70.8,0 106.9,14.7 141.7,29 34.9,14.3 71,29 142.1,29 71.09999,0 107.19999,-14.8 142.09999,-29 34.8,-14.2 70.9,-29 141.7,-29 70.8,0 106.9,14.7 141.7,29 34.9,14.3 71,29 142.1,29 l 0,-632.20001 -1419.00002,0 z"/>
			</g>
		</mask>
		<mask id="color-mask">
			<g>
				<path d="m 909.1,353.4 0,-67.6 c -70.8,0 -106.9,-14.7 -141.7,-29 -34.9,-14.3 -71,-29 -142.1,-29 -71,0 -107.2,14.8 -142.1,29 -34.8,14.2 -70.9,29 -141.7,29 -70.8,0 -106.9,-14.7 -141.7,-29 -34.9,-14.3 -71,-29 -142.1,-29 -71.1,0 -107.2,14.8 -142.1,29 -34.8,14.2 -70.9,29 -141.7,29 -70.8,0 -106.9,-14.7 -141.7,-29 -34.9,-14.3 -71,-29 -142.1,-29 l 0,632.2 1419,0 z"/>
			</g>
		</mask>
  </defs>
  
  <g  id="grayscale" mask="url(#grayscale-mask)">
    <use id="grayscale-strok" href="#letters-strok" />
    <use id="grayscale-logo" href="#letters" />
  </g>
  <g  mask="url(#color-mask)">
    <use id="color-strok" href="#letters-strok"/>
    <use id="color-logo" href="#letters" />
  </g>
</svg>
